PathFileType	4	(X/Y/Z)	C:\Users\dbl\Desktop\LZH\BX\bx_y_0_901.trc
DataRate	CameraRate	NumFrames	NumMarkers	Units	OrigDataRate	OrigDataStartFrame	OrigNumFrames
50.00	50.00	      5	43	mm	50.00	916	      1220
Frame#	Time	Top.Head			R.Acromium			L.Acromium			Sternum			R.ASIS			L.ASIS			V.Sacral			R.Thigh.Upper			R.Thigh.Front			R.Thigh.Rear			R.Knee.Lat			R.Knee.Med			R.Shank.Upper			R.Shank.Front			R.Shank.Rear			R.Ankle.Lat			R.Midfoot.Lat			R.Toe.Lat			R.Toe.Tip			R.Toe.Med			R.Ankle.Med			R.Midfoot.Sup			R.Heel			L.Thigh.Upper			L.Thigh.Front			L.Thigh.Rear			L.Knee.Lat			L.Knee.Med			L.Shank.Upper			L.Shank.Front			L.Shank.Rear			L.Ankle.Lat			L.Midfoot.Lat			L.Toe.Lat			L.Toe.Tip			L.Toe.Med			L.Ankle.Med			L.Midfoot.Sup			L.Heel			origin1 front left			origin2 front right			origin 3 back right			origin 4 back leftt			
		X1	Y1	Z1	X2	Y2	Z2	X3	Y3	Z3	X4	Y4	Z4	X5	Y5	Z5	X6	Y6	Z6	X7	Y7	Z7	X8	Y8	Z8	X9	Y9	Z9	X10	Y10	Z10	X11	Y11	Z11	X12	Y12	Z12	X13	Y13	Z13	X14	Y14	Z14	X15	Y15	Z15	X16	Y16	Z16	X17	Y17	Z17	X18	Y18	Z18	X19	Y19	Z19	X20	Y20	Z20	X21	Y21	Z21	X22	Y22	Z22	X23	Y23	Z23	X24	Y24	Z24	X25	Y25	Z25	X26	Y26	Z26	X27	Y27	Z27	X28	Y28	Z28	X29	Y29	Z29	X30	Y30	Z30	X31	Y31	Z31	X32	Y32	Z32	X33	Y33	Z33	X34	Y34	Z34	X35	Y35	Z35	X36	Y36	Z36	X37	Y37	Z37	X38	Y38	Z38	X39	Y39	Z39	X40	Y40	Z40	X41	Y41	Z41	X42	Y42	Z42	X43	Y43	Z43	

916	18.300	-47.17566	213.34247	1254.26855	-307.40421	36.67949	1097.46631	-300.63263	424.50021	1123.06372	-352.74225	237.98436	1084.21570	-702.36713	159.02203	990.90533	-699.88269	358.58154	1021.82080	-839.23315	242.10974	1104.09363	-739.00574	88.46969	874.81812	-681.63391	144.23010	826.78137	-779.04889	85.69568	728.66522	-758.99396	117.85016	586.95123	-726.67175	224.19885	549.46289	-774.63489	117.84844	526.02795	-692.72894	163.42526	542.50146	-794.49951	119.32597	451.77777	-695.92975	139.31503	210.45511	-617.28015	76.31735	164.35490	-571.25165	50.63793	159.78053	-493.13422	96.27140	160.62012	-533.56531	145.24750	164.42151	-645.40942	213.43835	224.81786	-595.86719	186.88545	173.49432	-720.72443	209.51961	169.56367	-729.06122	432.26321	865.79767	-672.72083	372.38065	817.76196	-754.17383	444.70831	732.52466	-760.86719	419.56927	608.92432	-713.29865	315.64737	564.58209	-753.64648	418.37830	550.24957	-693.99518	375.05524	537.13196	-790.05182	424.68463	488.15292	-686.52637	419.62100	209.95860	-585.09467	468.84036	163.46576	-546.27063	480.19553	159.34808	-490.20483	426.02438	167.63846	-526.92938	387.28781	176.91679	-651.09912	331.71561	210.81909	-595.39868	349.71170	173.06453	-732.99127	347.10443	164.44417	-444.13870	448.62122	147.89839	-450.42377	75.77471	143.56686	-806.30939	82.64948	142.61417	-798.93579	457.92984	145.64844	
917	18.320	-48.44305	213.30188	1258.80688	-307.73602	36.65213	1100.69153	-301.20459	424.47137	1125.81458	-353.57733	238.59943	1087.46863	-701.12329	158.89339	991.81842	-698.67578	358.82874	1022.29205	-839.60626	242.17506	1103.87646	-738.82996	88.60411	875.02130	-681.54846	144.29581	826.82458	-778.86499	85.72194	728.89215	-759.00146	117.85802	586.95294	-726.60510	224.13647	549.51837	-774.62402	117.88341	526.02069	-692.68994	163.40041	542.52844	-794.50635	119.33533	451.79364	-695.97565	139.34500	210.42781	-617.29980	76.30161	164.30943	-571.27399	50.63104	159.80856	-493.13031	96.26980	160.61540	-533.57825	145.28398	164.37245	-645.41711	213.45746	224.81734	-595.87231	186.88477	173.46437	-720.71289	209.53117	169.57547	-728.74402	432.28809	865.96692	-672.51013	372.20654	817.72247	-753.75232	444.85007	732.64685	-760.70245	419.50989	608.95404	-713.20154	315.66641	564.62781	-753.49622	418.31354	550.24603	-693.91632	375.07877	537.12787	-789.96771	424.68097	488.20538	-686.48572	419.74066	210.11501	-585.13538	468.86273	163.44559	-546.27106	480.20209	159.33051	-490.19098	426.02322	167.64215	-526.95294	387.26776	176.94092	-651.09839	331.71527	210.82018	-595.40497	349.72665	173.05670	-733.00140	347.12204	164.45181	-444.12411	448.60620	147.89404	-450.43793	75.78358	143.56741	-806.29224	82.67644	142.60881	-798.87793	457.89389	145.71756	
918	18.340	-49.81110	213.34732	1263.88354	-308.08887	36.61116	1104.30298	-301.83521	424.48486	1128.93311	-354.45795	239.21190	1090.80750	-699.83539	158.75780	992.76398	-697.42688	359.08405	1022.77631	-839.90906	242.32419	1103.63110	-738.58337	88.72820	875.28839	-681.38684	144.37636	826.84747	-778.60962	85.72903	729.09436	-758.97937	117.87311	586.96747	-726.48560	224.04436	549.55359	-774.56781	117.92171	526.00928	-692.61139	163.37251	542.56250	-794.49597	119.36567	451.79675	-696.01251	139.37630	210.40442	-617.31262	76.27525	164.29199	-571.31213	50.61985	159.84108	-493.12372	96.29425	160.61298	-533.56433	145.29990	164.39149	-645.41003	213.47897	224.81935	-595.88904	186.88103	173.40355	-720.71277	209.53886	169.58812	-728.36230	432.27005	866.15082	-672.27698	372.08322	817.77600	-753.34167	444.90231	732.77112	-760.49341	419.43671	609.02759	-713.07373	315.68387	564.66180	-753.40088	418.23508	550.26190	-693.81995	375.09589	537.13824	-789.85480	424.64557	488.26666	-686.45178	419.84723	210.26997	-585.17615	468.90448	163.44801	-546.28229	480.21347	159.31241	-490.18790	426.01074	167.65596	-526.96033	387.25195	176.94051	-651.09558	331.70880	210.83289	-595.43427	349.74203	173.02956	-733.01105	347.10254	164.46458	-444.11105	448.59842	147.89084	-450.44675	75.76452	143.59727	-806.28833	82.68314	142.60991	-798.81378	457.86118	145.77139	
919	18.360	-51.29303	213.45786	1269.56982	-308.46286	36.56235	1108.29248	-302.49823	424.54538	1132.50024	-355.38458	239.82129	1094.23193	-698.50317	158.61519	993.74207	-696.13599	359.34760	1023.27356	-840.18799	242.52280	1103.34631	-738.22845	88.79010	875.58167	-681.12665	144.47507	826.87311	-778.28485	85.71649	729.29523	-758.88031	117.88043	587.02057	-726.29926	223.94370	549.55609	-774.45557	117.92200	526.03088	-692.47400	163.32634	542.61163	-794.46912	119.37155	451.78381	-696.06128	139.41525	210.35266	-617.31586	76.24091	164.28250	-571.35260	50.60660	159.85767	-493.11041	96.31401	160.61092	-533.52838	145.29370	164.46805	-645.39319	213.48439	224.82118	-595.90820	186.87485	173.33405	-720.72119	209.54192	169.60503	-727.92310	432.21240	866.35803	-671.98273	372.05801	817.99237	-752.94128	444.82245	732.90521	-760.25635	419.36914	609.12537	-712.90698	315.69598	564.67920	-753.34735	418.18640	550.32312	-693.68451	375.11963	537.18250	-789.72705	424.58032	488.31015	-686.42352	419.89658	210.36755	-585.18860	468.95157	163.46632	-546.30884	480.23477	159.29688	-490.20227	426.00723	167.66747	-526.94574	387.24701	176.91246	-651.08984	331.69040	210.86763	-595.47192	349.75446	172.99414	-733.00989	347.08420	164.47292	-444.10330	448.59900	147.88972	-450.45544	75.70381	143.67198	-806.30194	82.67196	142.60875	-798.76025	457.84631	145.80341	
920	18.380	-52.93170	213.57448	1275.91382	-308.84476	36.52533	1112.68250	-303.17657	424.62604	1136.55884	-356.35773	240.42714	1097.74121	-697.12665	158.46552	994.75275	-694.80322	359.61935	1023.78375	-840.50281	242.69344	1103.01746	-737.72791	88.79532	875.87213	-680.74200	144.57108	826.99030	-777.91125	85.66006	729.53754	-758.67206	117.86481	587.12469	-726.02893	223.87234	549.54626	-774.28137	117.85432	526.10736	-692.27588	163.25230	542.67029	-794.41040	119.31729	451.78513	-696.12842	139.45062	210.27020	-617.30524	76.20616	164.27953	-571.36749	50.59290	159.84135	-493.09473	96.31961	160.60455	-533.49097	145.26271	164.55748	-645.36340	213.46062	224.83263	-595.91541	186.86151	173.29865	-720.73785	209.53552	169.63356	-727.43201	432.11505	866.57727	-671.58496	372.16373	818.40753	-752.51428	444.62186	733.04266	-759.99902	419.31808	609.22095	-712.66351	315.68854	564.70782	-753.30188	418.17270	550.42987	-693.50159	375.15408	537.25653	-789.59674	424.50977	488.34262	-686.40210	419.87708	210.39911	-585.16998	468.97504	163.47469	-546.34210	480.25839	159.27718	-490.22379	426.02487	167.66270	-526.91772	387.25241	176.87309	-651.08624	331.66858	210.90724	-595.48547	349.76187	172.97821	-732.99402	347.10419	164.47453	-444.09900	448.60641	147.88899	-450.47119	75.61698	143.75891	-806.31934	82.65090	142.60052	-798.74084	457.85172	145.80305	
